<svg
	width="24"
	height="12"
	viewBox="0 0 24 12"
	fill="none"
	xmlns="http://www.w3.org/2000/svg"
>
	<g clip-path="url(#clip0_204_161)">
		<path
			fill-rule="evenodd"
			clip-rule="evenodd"
			d="M22.6241 2.41919C22.5732 2.2954 22.4868 2.18949 22.3757 2.11487C22.2646 2.04024 22.1339 2.00026 22 2H19.3361V0.666407C19.3348 0.489088 19.2634 0.319466 19.1374 0.194605C19.0115 0.0697441 18.8413 -0.000215386 18.664 4.98158e-07H7.42407C7.3367 0.000105384 7.25015 0.0174207 7.16948 0.0509771C7.08881 0.0845334 7.01562 0.133666 6.95395 0.195557C6.89229 0.257449 6.84337 0.330905 6.81011 0.411695C6.77684 0.492485 6.7598 0.579037 6.76001 0.666407V2H3.32007C3.14722 2.00599 2.98339 2.07885 2.86323 2.20325C2.74307 2.32764 2.67593 2.49384 2.67593 2.6668C2.67593 2.83975 2.74307 3.00595 2.86323 3.13035C2.98339 3.25474 3.14722 3.32761 3.32007 3.33359H6.76001V4.66641H1.98403C1.81118 4.67239 1.64746 4.74526 1.52729 4.86965C1.40713 4.99405 1.33999 5.16025 1.33999 5.3332C1.33999 5.50616 1.40713 5.67236 1.52729 5.79675C1.64746 5.92115 1.81118 5.99401 1.98403 6H6.76001V10C6.7598 10.0874 6.77684 10.1739 6.81011 10.2547C6.84337 10.3355 6.89229 10.4089 6.95395 10.4708C7.01562 10.5327 7.08881 10.5818 7.16948 10.6154C7.25015 10.649 7.3367 10.6663 7.42407 10.6664H8.86401C8.99292 11.0546 9.24089 11.3924 9.57261 11.6318C9.90432 11.8712 10.303 12 10.7121 12C11.1211 12 11.5198 11.8712 11.8515 11.6318C12.1832 11.3924 12.4311 11.0546 12.56 10.6664H18.2081C18.337 11.0546 18.5848 11.3924 18.9166 11.6318C19.2483 11.8712 19.6469 12 20.056 12C20.4651 12 20.8638 11.8712 21.1956 11.6318C21.5273 11.3924 21.7751 11.0546 21.9041 10.6664H23.3361C23.5134 10.6666 23.6836 10.5967 23.8095 10.4718C23.9354 10.3469 24.0068 10.1773 24.0081 10V6C24.0042 5.91543 23.988 5.83189 23.96 5.752L22.6241 2.41919ZM10.7121 10.6664C10.5908 10.6659 10.4723 10.6295 10.3717 10.5618C10.2711 10.494 10.1929 10.398 10.1468 10.2858C10.1008 10.1736 10.089 10.0502 10.113 9.93132C10.137 9.81243 10.1957 9.70334 10.2817 9.6178C10.3677 9.53226 10.4771 9.47412 10.5961 9.45073C10.7152 9.42734 10.8384 9.43974 10.9503 9.48638C11.0623 9.53301 11.1579 9.61179 11.2251 9.71274C11.2924 9.8137 11.3282 9.9323 11.3281 10.0536C11.327 10.2163 11.2616 10.3721 11.1462 10.4869C11.0309 10.6017 10.8748 10.6662 10.7121 10.6664ZM18 9.33359H12.5201C12.3762 8.97158 12.1269 8.66111 11.8045 8.44236C11.4822 8.22361 11.1016 8.10667 10.7121 8.10667C10.3225 8.10667 9.94193 8.22361 9.61958 8.44236C9.29723 8.66111 9.04795 8.97158 8.90405 9.33359H8.09604V6H9.99204C10.1649 5.99401 10.3287 5.92115 10.4489 5.79675C10.569 5.67236 10.6362 5.50616 10.6362 5.3332C10.6362 5.16025 10.569 4.99405 10.4489 4.86965C10.3287 4.74526 10.1649 4.67239 9.99204 4.66641H8.09604V3.33359H12.656C12.8289 3.32761 12.9927 3.25474 13.1128 3.13035C13.233 3.00595 13.3001 2.83975 13.3001 2.6668C13.3001 2.49384 13.233 2.32764 13.1128 2.20325C12.9927 2.07885 12.8289 2.00599 12.656 2H8.09604V1.33359H18V9.33359ZM20.056 10.6664C19.9344 10.6675 19.8152 10.6325 19.7135 10.5657C19.6119 10.4989 19.5324 10.4034 19.4851 10.2913C19.4378 10.1793 19.4249 10.0557 19.448 9.93628C19.4711 9.81686 19.5292 9.707 19.6149 9.62065C19.7006 9.53431 19.8099 9.47539 19.9291 9.45134C20.0484 9.4273 20.1721 9.43922 20.2845 9.48562C20.397 9.53202 20.493 9.61078 20.5606 9.71191C20.6282 9.81304 20.6642 9.93196 20.664 10.0536C20.6642 10.2153 20.6004 10.3706 20.4865 10.4854C20.3725 10.6003 20.2178 10.6653 20.056 10.6664ZM22.672 9.33359H21.864C21.7192 8.97223 21.4697 8.66237 21.1476 8.44373C20.8255 8.22508 20.4453 8.10761 20.056 8.1064C19.8092 8.10567 19.5647 8.15324 19.3361 8.24641V3.33359H21.552L21.8161 4H20.664C20.5766 4.0001 20.4902 4.01742 20.4095 4.05098C20.3289 4.08453 20.2556 4.13367 20.1939 4.19556C20.1322 4.25745 20.0834 4.3309 20.0501 4.41169C20.0169 4.49248 19.9998 4.57904 20 4.66641V6C19.9998 6.08737 20.0169 6.17392 20.0501 6.25471C20.0834 6.3355 20.1322 6.40893 20.1939 6.47083C20.2556 6.53272 20.3289 6.58185 20.4095 6.61541C20.4902 6.64896 20.5766 6.6663 20.664 6.66641H22.672V9.33359ZM5.32007 7.33359H0.648096C0.471355 7.33359 0.301781 7.40381 0.176807 7.52878C0.0518324 7.65376 -0.0183105 7.82326 -0.0183105 8C-0.0183105 8.17674 0.0518324 8.34624 0.176807 8.47122C0.301781 8.59619 0.471355 8.66641 0.648096 8.66641H5.32007C5.49681 8.66641 5.66629 8.59619 5.79126 8.47122C5.91623 8.34624 5.98647 8.17674 5.98647 8C5.98647 7.82326 5.91623 7.65376 5.79126 7.52878C5.66629 7.40381 5.49681 7.33359 5.32007 7.33359Z"
			fill="black"
		/>
	</g>
	<defs>
		<clipPath id="clip0_204_161">
			<rect
				width="24"
				height="12"
				fill="currentColor"
			/>
		</clipPath>
	</defs>
</svg>
