<svg
	width="24"
	height="21"
	viewBox="0 0 24 21"
	fill="none"
	xmlns="http://www.w3.org/2000/svg"
>
	<path
		d="M17.375 1.79999C15.075 1.79999 13.075 3.38822 12.275 5.50587C12.275 5.50587 12.275 5.50587 12.275 5.39999C12.275 5.39999 12.275 5.39999 12.275 5.50587C11.475 3.38822 9.47502 1.79999 7.17502 1.79999C4.17502 1.79999 1.77502 4.34116 1.77502 7.41175C1.77502 9.31764 3.67502 11.9647 5.17502 13.6588C6.07502 14.7176 7.07502 15.6706 8.07502 16.4118L12.175 19.8L16.275 16.4118C17.275 15.5647 18.275 14.6118 19.175 13.6588C20.875 11.8588 22.775 9.31764 22.775 7.41175C22.775 4.34116 20.375 1.79999 17.375 1.79999Z"
		stroke="currentColor"
		stroke-width="2"
		stroke-linejoin="round"
	/>
</svg>
