<svg
	width="21"
	height="15"
	viewBox="0 0 21 15"
	fill="none"
	xmlns="http://www.w3.org/2000/svg"
>
	<path
		d="M8.09998 10.4082L13.29 7.4082L8.09998 4.4082V10.4082ZM19.66 2.5782C19.79 3.0482 19.88 3.6782 19.94 4.4782C20.01 5.2782 20.04 5.9682 20.04 6.5682L20.1 7.4082C20.1 9.5982 19.94 11.2082 19.66 12.2382C19.41 13.1382 18.83 13.7182 17.93 13.9682C17.46 14.0982 16.6 14.1882 15.28 14.2482C13.98 14.3182 12.79 14.3482 11.69 14.3482L10.1 14.4082C5.90998 14.4082 3.29998 14.2482 2.26998 13.9682C1.36998 13.7182 0.789976 13.1382 0.539976 12.2382C0.409976 11.7682 0.319976 11.1382 0.259976 10.3382C0.189976 9.5382 0.159976 8.8482 0.159976 8.2482L0.0999756 7.4082C0.0999756 5.2182 0.259976 3.6082 0.539976 2.5782C0.789976 1.6782 1.36998 1.0982 2.26998 0.848203C2.73998 0.718203 3.59998 0.628203 4.91998 0.568203C6.21998 0.498203 7.40998 0.468203 8.50998 0.468203L10.1 0.408203C14.29 0.408203 16.9 0.568203 17.93 0.848203C18.83 1.0982 19.41 1.6782 19.66 2.5782Z"
		fill="currentColor"
	/>
</svg>
