<svg
	width="23"
	height="22"
	viewBox="0 0 23 22"
	fill="none"
	xmlns="http://www.w3.org/2000/svg"
>
	<g clip-path="url(#clip0_21_2392)">
		<path
			d="M20.575 4.85002H16.475L15.375 0.850017C15.175 0.250017 14.575 -0.0499831 14.075 0.150017C13.475 0.350017 13.175 0.950017 13.375 1.45002L14.375 4.85002H8.97502L9.97502 1.45002C10.075 0.850017 9.77502 0.250017 9.17502 0.0500169C8.57502 -0.0499831 7.97502 0.250017 7.87502 0.850017L6.77502 4.85002H2.57502C1.57502 4.85002 0.775024 5.65002 0.775024 6.65002V8.75002C0.775024 9.65002 1.47502 10.45 2.37502 10.55L4.27502 20.05C4.47502 20.95 5.17502 21.55 6.07502 21.55H17.075C17.975 21.55 18.775 20.85 18.875 19.95L20.575 10.45C21.575 10.45 22.375 9.65002 22.375 8.65002V6.65002C22.375 5.65002 21.575 4.85002 20.575 4.85002ZM16.875 19.45H6.37502L4.67502 10.55H18.475L16.875 19.45ZM20.275 8.35002H2.97502V7.05002H20.275V8.35002ZM8.77502 16.95C9.37502 16.95 9.87502 16.45 9.87502 15.85V12.65C9.87502 12.05 9.37502 11.55 8.77502 11.55C8.17502 11.55 7.67502 12.05 7.67502 12.65V15.85C7.67502 16.45 8.17502 16.95 8.77502 16.95ZM11.575 16.95C12.175 16.95 12.675 16.45 12.675 15.85V12.65C12.675 12.05 12.175 11.55 11.575 11.55C10.975 11.55 10.475 12.05 10.475 12.65V15.85C10.475 16.45 10.975 16.95 11.575 16.95ZM14.375 16.95C14.975 16.95 15.475 16.45 15.475 15.85V12.65C15.475 12.05 14.975 11.55 14.375 11.55C13.775 11.55 13.275 12.05 13.275 12.65V15.85C13.275 16.45 13.775 16.95 14.375 16.95Z"
			fill="currentColor"
		/>
	</g>
	<defs>
		<clipPath id="clip0_21_2392">
			<rect
				width="21.6"
				height="21.5"
				fill="white"
				transform="translate(0.775024 0.0499878)"
			/>
		</clipPath>
	</defs>
</svg>
