<svg
	width="21"
	height="21"
	viewBox="0 0 21 21"
	fill="none"
	xmlns="http://www.w3.org/2000/svg"
>
	<path
		d="M6.39998 0.408203H14.8C18 0.408203 20.6 3.0082 20.6 6.2082V14.6082C20.6 16.1465 19.9889 17.6217 18.9012 18.7094C17.8135 19.7971 16.3382 20.4082 14.8 20.4082H6.39998C3.19998 20.4082 0.599976 17.8082 0.599976 14.6082V6.2082C0.599976 4.66995 1.21105 3.19469 2.29876 2.10698C3.38647 1.01927 4.86172 0.408203 6.39998 0.408203ZM6.19998 2.4082C5.2452 2.4082 4.32952 2.78749 3.65439 3.46262C2.97926 4.13775 2.59998 5.05342 2.59998 6.0082V14.8082C2.59998 16.7982 4.20998 18.4082 6.19998 18.4082H15C15.9548 18.4082 16.8704 18.0289 17.5456 17.3538C18.2207 16.6787 18.6 15.763 18.6 14.8082V6.0082C18.6 4.0182 16.99 2.4082 15 2.4082H6.19998ZM15.85 3.9082C16.1815 3.9082 16.4994 4.0399 16.7339 4.27432C16.9683 4.50874 17.1 4.82668 17.1 5.1582C17.1 5.48972 16.9683 5.80767 16.7339 6.04209C16.4994 6.27651 16.1815 6.4082 15.85 6.4082C15.5185 6.4082 15.2005 6.27651 14.9661 6.04209C14.7317 5.80767 14.6 5.48972 14.6 5.1582C14.6 4.82668 14.7317 4.50874 14.9661 4.27432C15.2005 4.0399 15.5185 3.9082 15.85 3.9082ZM10.6 5.4082C11.9261 5.4082 13.1978 5.93499 14.1355 6.87267C15.0732 7.81035 15.6 9.08212 15.6 10.4082C15.6 11.7343 15.0732 13.0061 14.1355 13.9437C13.1978 14.8814 11.9261 15.4082 10.6 15.4082C9.27389 15.4082 8.00212 14.8814 7.06444 13.9437C6.12676 13.0061 5.59998 11.7343 5.59998 10.4082C5.59998 9.08212 6.12676 7.81035 7.06444 6.87267C8.00212 5.93499 9.27389 5.4082 10.6 5.4082ZM10.6 7.4082C9.80433 7.4082 9.04126 7.72427 8.47865 8.28688C7.91605 8.84949 7.59998 9.61255 7.59998 10.4082C7.59998 11.2039 7.91605 11.9669 8.47865 12.5295C9.04126 13.0921 9.80433 13.4082 10.6 13.4082C11.3956 13.4082 12.1587 13.0921 12.7213 12.5295C13.2839 11.9669 13.6 11.2039 13.6 10.4082C13.6 9.61255 13.2839 8.84949 12.7213 8.28688C12.1587 7.72427 11.3956 7.4082 10.6 7.4082Z"
		fill="currentColor"
	/>
</svg>
