<svg
	width="13"
	height="23"
	viewBox="0 0 13 23"
	fill="none"
	xmlns="http://www.w3.org/2000/svg"
>
	<path
		d="M11.6936 3.75002C10.6936 2.05002 8.99364 0.950024 7.09364 0.650024C6.59364 0.650024 6.09364 0.650024 5.49364 0.650024C3.59364 0.950024 1.89364 2.05002 0.893636 3.75002C-0.106364 5.65002 -0.306364 7.85002 0.493636 9.85002L5.29364 21.65C5.49364 22.05 5.89364 22.35 6.29364 22.35C6.69364 22.35 7.09364 22.05 7.29364 21.65L12.0936 9.85002C12.9936 7.85002 12.7936 5.65002 11.6936 3.75002ZM10.1936 8.95002L6.39364 18.25L2.49364 8.95002C1.99364 7.65002 2.09364 6.15002 2.79364 4.85002C3.49364 3.75002 4.59364 2.95002 5.79364 2.85002C5.99364 2.85002 6.19364 2.85002 6.29364 2.85002C6.39364 2.85002 6.69364 2.85002 6.79364 2.85002C7.99364 2.95002 9.09364 3.75002 9.79364 4.85002C10.5936 6.15002 10.6936 7.65002 10.1936 8.95002ZM6.29364 5.15002C5.29364 5.15002 4.39364 5.95002 4.39364 7.05002C4.39364 8.05002 5.19364 8.95002 6.29364 8.95002C7.39364 8.95002 8.19364 8.15002 8.19364 7.05002C8.19364 5.95002 7.39364 5.15002 6.29364 5.15002Z"
		fill="currentColor"
	/>
</svg>
