<svg width="94" height="23" viewBox="0 0 94 23" fill="none" xmlns="http://www.w3.org/2000/svg">
<path d="M23.52 0.999999V22H15.12V7.09H11.76V14.95C11.76 15.67 11.71 16.46 11.61 17.32C11.51 18.16 11.18 18.96 10.62 19.72C10.08 20.46 9.23 21.08 8.07 21.58C6.91 22.08 5.27 22.33 3.15 22.33C2.53 22.33 1.95 22.29 1.41 22.21C0.89 22.15 0.42 22.08 0 22V16.12C0.22 16.18 0.44 16.23 0.66 16.27C0.88 16.31 1.1 16.33 1.32 16.33C2.02 16.33 2.56 16.21 2.94 15.97C3.34 15.71 3.63 15.37 3.81 14.95C3.99 14.51 4.1 14.02 4.14 13.48C4.18 12.92 4.2 12.34 4.2 11.74V0.999999H23.52ZM38.5104 22.63C36.4504 22.63 34.6604 22.32 33.1404 21.7C31.6204 21.06 30.3604 20.23 29.3604 19.21C28.3604 18.17 27.6104 16.98 27.1104 15.64C26.6104 14.3 26.3604 12.92 26.3604 11.5C26.3604 10.08 26.6104 8.7 27.1104 7.36C27.6104 6.02 28.3604 4.84 29.3604 3.82C30.3604 2.78 31.6204 1.95 33.1404 1.33C34.6604 0.69 36.4504 0.37 38.5104 0.37C40.5704 0.37 42.3604 0.69 43.8804 1.33C45.4004 1.95 46.6604 2.78 47.6604 3.82C48.6804 4.84 49.4304 6.02 49.9104 7.36C50.4104 8.7 50.6604 10.08 50.6604 11.5C50.6604 12.92 50.4104 14.3 49.9104 15.64C49.4304 16.98 48.6804 18.17 47.6604 19.21C46.6604 20.23 45.4004 21.06 43.8804 21.7C42.3604 22.32 40.5704 22.63 38.5104 22.63ZM38.5104 15.91C39.0504 15.91 39.5604 15.82 40.0404 15.64C40.5404 15.46 40.9804 15.19 41.3604 14.83C41.7604 14.45 42.0704 13.99 42.2904 13.45C42.5304 12.89 42.6504 12.24 42.6504 11.5C42.6504 10.76 42.5304 10.12 42.2904 9.58C42.0704 9.02 41.7604 8.56 41.3604 8.2C40.9804 7.82 40.5404 7.54 40.0404 7.36C39.5604 7.18 39.0504 7.09 38.5104 7.09C37.9704 7.09 37.4504 7.18 36.9504 7.36C36.4704 7.54 36.0304 7.82 35.6304 8.2C35.2504 8.56 34.9404 9.02 34.7004 9.58C34.4804 10.12 34.3704 10.76 34.3704 11.5C34.3704 12.24 34.4804 12.89 34.7004 13.45C34.9404 13.99 35.2504 14.45 35.6304 14.83C36.0304 15.19 36.4704 15.46 36.9504 15.64C37.4504 15.82 37.9704 15.91 38.5104 15.91ZM53.5111 0.999999H68.2111V7.09H61.9111V22H53.5111V0.999999ZM81.7526 22.63C79.6926 22.63 77.9026 22.32 76.3826 21.7C74.8626 21.06 73.6026 20.23 72.6026 19.21C71.6026 18.17 70.8526 16.98 70.3526 15.64C69.8526 14.3 69.6026 12.92 69.6026 11.5C69.6026 10.08 69.8526 8.7 70.3526 7.36C70.8526 6.02 71.6026 4.84 72.6026 3.82C73.6026 2.78 74.8626 1.95 76.3826 1.33C77.9026 0.69 79.6926 0.37 81.7526 0.37C83.8126 0.37 85.6026 0.69 87.1226 1.33C88.6426 1.95 89.9026 2.78 90.9026 3.82C91.9226 4.84 92.6726 6.02 93.1526 7.36C93.6526 8.7 93.9026 10.08 93.9026 11.5C93.9026 12.92 93.6526 14.3 93.1526 15.64C92.6726 16.98 91.9226 18.17 90.9026 19.21C89.9026 20.23 88.6426 21.06 87.1226 21.7C85.6026 22.32 83.8126 22.63 81.7526 22.63ZM81.7526 15.91C82.2926 15.91 82.8026 15.82 83.2826 15.64C83.7826 15.46 84.2226 15.19 84.6026 14.83C85.0026 14.45 85.3126 13.99 85.5326 13.45C85.7726 12.89 85.8926 12.24 85.8926 11.5C85.8926 10.76 85.7726 10.12 85.5326 9.58C85.3126 9.02 85.0026 8.56 84.6026 8.2C84.2226 7.82 83.7826 7.54 83.2826 7.36C82.8026 7.18 82.2926 7.09 81.7526 7.09C81.2126 7.09 80.6926 7.18 80.1926 7.36C79.7126 7.54 79.2726 7.82 78.8726 8.2C78.4926 8.56 78.1826 9.02 77.9426 9.58C77.7226 10.12 77.6126 10.76 77.6126 11.5C77.6126 12.24 77.7226 12.89 77.9426 13.45C78.1826 13.99 78.4926 14.45 78.8726 14.83C79.2726 15.19 79.7126 15.46 80.1926 15.64C80.6926 15.82 81.2126 15.91 81.7526 15.91Z" fill="currentColor"/>
</svg>
