<svg
	width="21"
	height="19"
	viewBox="0 0 21 19"
	fill="none"
	xmlns="http://www.w3.org/2000/svg"
>
	<path
		d="M15.75 19L13 16L14.16 14.82L15.75 16.41L19.34 12.82L20.5 14.23L15.75 19ZM18 0C18.1326 0 18.2598 0.0526785 18.3536 0.146447C18.4473 0.240215 18.5 0.367392 18.5 0.5V10.34C17.87 10.12 17.2 10 16.5 10V2.7L13.5 3.86V10.8C12.7 11.27 12 11.91 11.5 12.68V3.87L7.5 2.47V14.13L10.55 15.2L10.5 16C10.5 16.46 10.55 16.92 10.65 17.35L6.5 15.9L1.16 17.97L1 18C0.867392 18 0.740215 17.9473 0.646447 17.8536C0.552679 17.7598 0.5 17.6326 0.5 17.5V2.38C0.5 2.15 0.65 1.97 0.86 1.9L6.5 0L12.5 2.1L17.84 0.03L18 0ZM2.5 3.46V15.31L5.5 14.15V2.45L2.5 3.46Z"
		fill="currentColor"
	/>
</svg>
