<svg
	width="22"
	height="22"
	viewBox="0 0 22 22"
	fill="none"
	xmlns="http://www.w3.org/2000/svg"
>
	<path
		d="M21.475 19.8L17.175 15.5C20.175 11.8 19.975 6.3 16.475 2.8C14.575 1 12.175 0 9.575 0C6.975 0 4.575 1 2.775 2.8C-0.925 6.5 -0.925 12.6 2.775 16.3C4.575 18.1 6.975 19.1 9.575 19.1C11.775 19.1 13.875 18.4 15.575 17L19.875 21.3C20.075 21.5 20.375 21.6 20.675 21.6C20.975 21.6 21.275 21.5 21.475 21.3C21.875 20.9 21.875 20.2 21.475 19.8ZM4.375 14.7C1.475 11.8 1.475 7.2 4.375 4.3C5.775 2.9 7.675 2.1 9.575 2.1C11.575 2.1 13.375 2.9 14.775 4.3C17.675 7.2 17.675 11.8 14.775 14.7C13.375 16.1 11.475 16.9 9.575 16.9C7.575 16.9 5.775 16.1 4.375 14.7Z"
		fill="currentColor"
	/>
</svg>
