<svg
	width="21"
	height="21"
	viewBox="0 0 21 21"
	fill="none"
	xmlns="http://www.w3.org/2000/svg"
>
	<path
		d="M13.57 0.408203H7.43C1.83 0.408203 0.5 1.7382 0.5 7.3382V13.4782C0.5 19.0782 1.83 20.4082 7.43 20.4082H13.57C19.17 20.4082 20.5 19.0782 20.5 13.4782V7.3382C20.5 1.7382 19.17 0.408203 13.57 0.408203ZM16.65 14.6782H15.19C14.64 14.6782 14.47 14.2282 13.5 13.2382C12.62 12.4082 12.24 12.2882 12.03 12.2882C11.74 12.2882 11.65 12.3682 11.65 12.7882V14.0982C11.65 14.4482 11.54 14.6682 10.61 14.6682C9.07 14.6682 7.36 13.7282 6.16 11.9982C4.35 9.4582 3.86 7.5382 3.86 7.1582C3.86 6.9482 3.93 6.7482 4.35 6.7482H5.82C6.19 6.7482 6.33 6.9082 6.47 7.3082C7.19 9.4082 8.39 11.2082 8.88 11.2082C9.07 11.2082 9.15 11.1182 9.15 10.6582V8.5082C9.1 7.5282 8.57 7.4382 8.57 7.0882C8.57 6.9082 8.71 6.7482 8.94 6.7482H11.23C11.54 6.7482 11.65 6.9082 11.65 7.2882V10.1782C11.65 10.4882 11.78 10.5982 11.88 10.5982C12.06 10.5982 12.22 10.4882 12.55 10.1482C13.6 8.9782 14.35 7.1682 14.35 7.1682C14.45 6.9582 14.61 6.7582 15 6.7582H16.43C16.87 6.7582 16.97 6.9882 16.87 7.2982C16.69 8.1482 14.91 10.6582 14.93 10.6582C14.77 10.9082 14.71 11.0182 14.93 11.3082C15.08 11.5182 15.59 11.9582 15.93 12.3482C16.55 13.0582 17.03 13.6482 17.16 14.0582C17.27 14.4682 17.07 14.6782 16.65 14.6782Z"
		fill="currentColor"
	/>
</svg>
