<svg
	width="20"
	height="21"
	viewBox="0 0 20 21"
	fill="none"
	xmlns="http://www.w3.org/2000/svg"
>
	<path
		d="M10.09 0.408203C4.62998 0.408203 0.179976 4.8582 0.179976 10.3182C0.179976 12.0682 0.639976 13.7682 1.49998 15.2682L0.0999756 20.4082L5.34998 19.0282C6.79998 19.8182 8.42998 20.2382 10.09 20.2382C15.55 20.2382 20 15.7882 20 10.3282C20 7.6782 18.97 5.1882 17.1 3.3182C15.23 1.4382 12.74 0.408203 10.09 0.408203ZM10.1 2.0782C12.3 2.0782 14.36 2.9382 15.92 4.4982C17.47 6.0582 18.33 8.1282 18.33 10.3282C18.33 14.8682 14.63 18.5582 10.09 18.5582C8.60998 18.5582 7.15998 18.1682 5.89998 17.4082L5.59998 17.2382L2.47998 18.0582L3.30998 15.0182L3.10998 14.6982C2.28998 13.4082 1.84998 11.8782 1.84998 10.3182C1.85998 5.7782 5.54998 2.0782 10.1 2.0782ZM6.57998 5.7382C6.41998 5.7382 6.14998 5.7982 5.91998 6.0482C5.69998 6.2982 5.04998 6.9082 5.04998 8.1182C5.04998 9.3382 5.93998 10.5082 6.04998 10.6782C6.18998 10.8482 7.80998 13.3482 10.3 14.4082C10.89 14.6782 11.35 14.8282 11.71 14.9382C12.3 15.1282 12.84 15.0982 13.27 15.0382C13.75 14.9682 14.73 14.4382 14.94 13.8582C15.15 13.2782 15.15 12.7882 15.09 12.6782C15.02 12.5782 14.86 12.5182 14.61 12.4082C14.36 12.2682 13.14 11.6682 12.92 11.5882C12.69 11.5082 12.55 11.4682 12.36 11.7082C12.2 11.9582 11.72 12.5182 11.58 12.6782C11.43 12.8482 11.29 12.8682 11.05 12.7482C10.79 12.6182 9.98997 12.3582 9.04998 11.5182C8.30998 10.8582 7.81998 10.0482 7.66998 9.7982C7.54998 9.5582 7.65998 9.4082 7.77997 9.2982C7.88998 9.1882 8.04998 9.0082 8.14998 8.8582C8.27998 8.7182 8.31998 8.6082 8.39998 8.4482C8.47998 8.2782 8.43998 8.1382 8.37998 8.0182C8.31997 7.9082 7.81998 6.6682 7.60998 6.1782C7.40998 5.6982 7.20998 5.7582 7.04998 5.7482C6.90998 5.7482 6.74998 5.7382 6.57998 5.7382Z"
		fill="currentColor"
	/>
</svg>
